<svg class="svg-icon" style="width: 1em; height: 1em;vertical-align: middle;fill: currentColor;overflow: hidden;" viewBox="0 0 1024 1024" version="1.1" xmlns="http://www.w3.org/2000/svg"><path d="M887.466667 785.032533 887.466667 1024l-238.933333-238.967467L0 785.032533 0 0l1024 0 0 785.032533L887.466667 785.032533zM955.733333 68.266667 68.266667 68.266667l0 648.533333 614.4 0 136.533333 136.4992L819.2 716.8l136.533333 0L955.733333 68.266667zM750.933333 443.733333c-37.6832 0-68.266667-30.583467-68.266667-68.266667 0-37.6832 30.583467-68.266667 68.266667-68.266667s68.266667 30.583467 68.266667 68.266667C819.2 413.149867 788.616533 443.733333 750.933333 443.733333zM512 443.733333c-37.6832 0-68.266667-30.583467-68.266667-68.266667 0-37.6832 30.583467-68.266667 68.266667-68.266667s68.266667 30.583467 68.266667 68.266667C580.266667 413.149867 549.6832 443.733333 512 443.733333zM273.066667 443.733333c-37.6832 0-68.266667-30.583467-68.266667-68.266667 0-37.6832 30.583467-68.266667 68.266667-68.266667s68.266667 30.583467 68.266667 68.266667C341.333333 413.149867 310.749867 443.733333 273.066667 443.733333z"  /></svg>